<svg width="25" height="25" viewBox="0 0 25 25" fill="none" xmlns="http://www.w3.org/2000/svg">
<path fill-rule="evenodd" clip-rule="evenodd" d="M2.3 12.5C2.3 18.1219 6.87807 22.7 12.5 22.7C18.1219 22.7 22.7 18.1219 22.7 12.5C22.7 6.87807 18.1219 2.3 12.5 2.3C6.87807 2.3 2.3 6.87807 2.3 12.5ZM0 12.5C0 19.3922 5.60781 25 12.5 25C19.3922 25 25 19.3922 25 12.5C25 5.60781 19.3922 0 12.5 0C5.60781 0 0 5.60781 0 12.5Z" fill="#0156FF"/>
<path fill-rule="evenodd" clip-rule="evenodd" d="M12.4996 6.09998C13.1347 6.09998 13.6496 6.61485 13.6496 7.24998V12.225H18.6246C19.2597 12.225 19.7746 12.7398 19.7746 13.375C19.7746 14.0101 19.2597 14.525 18.6246 14.525H11.3496V7.24998C11.3496 6.61485 11.8645 6.09998 12.4996 6.09998Z" fill="#0156FF"/>
</svg>
