<svg width="50" height="50" viewBox="0 0 50 50" fill="none" xmlns="http://www.w3.org/2000/svg">
<path d="M0 25C0 11.1929 11.1929 0 25 0C38.8071 0 50 11.1929 50 25C50 38.8071 38.8071 50 25 50H0V25Z" fill="#0156FF"/>
<path d="M23.8912 17.0905C24.2409 16.2923 25.3733 16.2923 25.723 17.0905L27.6781 21.5527C27.8232 21.8838 28.1357 22.1108 28.4954 22.1465L33.3434 22.627C34.2106 22.713 34.5605 23.7899 33.9094 24.3692L30.2698 27.6075C29.9998 27.8478 29.8804 28.2151 29.9576 28.5683L30.9987 33.3274C31.185 34.1788 30.2689 34.8444 29.5167 34.4042L25.3122 31.9434C25.0002 31.7608 24.614 31.7608 24.302 31.9434L20.0975 34.4042C19.3453 34.8444 18.4292 34.1788 18.6155 33.3274L19.6566 28.5683C19.7338 28.2151 19.6145 27.8478 19.3444 27.6075L15.7048 24.3692C15.0537 23.7899 15.4036 22.713 16.2708 22.627L21.1188 22.1465C21.4785 22.1108 21.791 21.8838 21.9361 21.5527L23.8912 17.0905Z" fill="white"/>
</svg>
